<svg width="160" height="160" viewBox="0 0 160 160" fill="none" xmlns="http://www.w3.org/2000/svg">
<g clip-path="url(#clip0_3_112)">
<path d="M151 80H159" stroke="black"/>
<path d="M9 80H1" stroke="black"/>
<path d="M80 151V159" stroke="black"/>
<path d="M80 9V1" stroke="black"/>
<path d="M150.73 86.188L158.699 86.8853" stroke="black"/>
<path d="M9.27016 73.8119L1.3006 73.1147" stroke="black"/>
<path d="M73.812 150.73L73.1147 158.699" stroke="black"/>
<path d="M86.1881 9.27017L86.8853 1.30061" stroke="black"/>
<path d="M149.921 92.329L157.8 93.7182" stroke="black"/>
<path d="M10.0786 67.671L2.20013 66.2818" stroke="black"/>
<path d="M67.6709 149.921L66.2817 157.8" stroke="black"/>
<path d="M92.329 10.0787L93.7181 2.2002" stroke="black"/>
<path d="M148.581 98.3761L156.308 100.447" stroke="black"/>
<path d="M11.4192 61.6238L3.69183 59.5533" stroke="black"/>
<path d="M61.6238 148.581L59.5533 156.308" stroke="black"/>
<path d="M98.3761 11.4193L100.447 3.69185" stroke="black"/>
<path d="M146.718 104.283L154.236 107.02" stroke="black"/>
<path d="M13.2818 55.7166L5.76422 52.9804" stroke="black"/>
<path d="M55.7165 146.718L52.9803 154.236" stroke="black"/>
<path d="M104.283 13.2818L107.02 5.76428" stroke="black"/>
<path d="M144.348 110.006L151.598 113.387" stroke="black"/>
<path d="M15.6521 49.9941L8.40167 46.6131" stroke="black"/>
<path d="M49.9941 144.348L46.6131 151.598" stroke="black"/>
<path d="M110.006 15.6521L113.387 8.40167" stroke="black"/>
<path d="M141.488 115.5L148.416 119.5" stroke="black"/>
<path d="M18.5122 44.5L11.584 40.5" stroke="black"/>
<path d="M44.5 141.488L40.5 148.416" stroke="black"/>
<path d="M115.5 18.5122L119.5 11.584" stroke="black"/>
<path d="M138.16 120.724L144.713 125.313" stroke="black"/>
<path d="M21.8401 39.2761L15.2869 34.6875" stroke="black"/>
<path d="M39.2761 138.16L34.6875 144.713" stroke="black"/>
<path d="M120.724 21.8402L125.312 15.287" stroke="black"/>
<path d="M134.389 125.638L140.517 130.78" stroke="black"/>
<path d="M25.6108 34.3621L19.4825 29.2198" stroke="black"/>
<path d="M34.3621 134.389L29.2198 140.518" stroke="black"/>
<path d="M125.638 25.6109L130.78 19.4825" stroke="black"/>
<path d="M130.205 130.205L135.861 135.861" stroke="black"/>
<path d="M29.7954 29.7954L24.1385 24.1386" stroke="black"/>
<path d="M29.7954 130.205L24.1386 135.861" stroke="black"/>
<path d="M130.205 29.7954L135.861 24.1386" stroke="black"/>
<path d="M125.638 134.389L130.78 140.518" stroke="black"/>
<path d="M34.362 25.6109L29.2197 19.4825" stroke="black"/>
<path d="M25.6108 125.638L19.4824 130.78" stroke="black"/>
<path d="M134.389 34.3621L140.517 29.2198" stroke="black"/>
<path d="M120.724 138.16L125.313 144.713" stroke="black"/>
<path d="M39.2761 21.8402L34.6874 15.287" stroke="black"/>
<path d="M21.8402 120.724L15.287 125.313" stroke="black"/>
<path d="M138.16 39.2761L144.713 34.6875" stroke="black"/>
<path d="M115.5 141.488L119.5 148.416" stroke="black"/>
<path d="M44.4999 18.5122L40.4999 11.584" stroke="black"/>
<path d="M18.5121 115.5L11.5839 119.5" stroke="black"/>
<path d="M141.488 44.5L148.416 40.5" stroke="black"/>
<path d="M110.006 144.348L113.387 151.598" stroke="black"/>
<path d="M49.994 15.6521L46.6131 8.40167" stroke="black"/>
<path d="M15.6521 110.006L8.40164 113.387" stroke="black"/>
<path d="M144.348 49.9941L151.598 46.6131" stroke="black"/>
<path d="M104.283 146.718L107.02 154.236" stroke="black"/>
<path d="M55.7166 13.2818L52.9804 5.76428" stroke="black"/>
<path d="M13.2818 104.283L5.76426 107.02" stroke="black"/>
<path d="M146.718 55.7166L154.236 52.9804" stroke="black"/>
<path d="M98.3761 148.581L100.447 156.308" stroke="black"/>
<path d="M61.6238 11.4193L59.5532 3.69185" stroke="black"/>
<path d="M11.4193 98.3761L3.69184 100.447" stroke="black"/>
<path d="M148.581 61.6238L156.308 59.5533" stroke="black"/>
<path d="M92.329 149.921L93.7182 157.8" stroke="black"/>
<path d="M67.6709 10.0787L66.2817 2.2002" stroke="black"/>
<path d="M10.0786 92.329L2.20015 93.7182" stroke="black"/>
<path d="M149.921 67.671L157.8 66.2818" stroke="black"/>
<path d="M86.188 150.73L86.8852 158.699" stroke="black"/>
<path d="M73.8119 9.27017L73.1146 1.30061" stroke="black"/>
<path d="M9.27014 86.188L1.30058 86.8853" stroke="black"/>
<path d="M150.73 73.8119L158.699 73.1147" stroke="black"/>
</g>
<defs>
<clipPath id="clip0_3_112">
<rect width="160" height="160" fill="white"/>
</clipPath>
</defs>
</svg>
