<svg width="647" height="331" viewBox="0 0 647 331" fill="none" xmlns="http://www.w3.org/2000/svg">
<path d="M203.143 103.963H33.8571V127.649H203.143V103.963Z" fill="#F87676"/>
<path d="M203.143 141.185H33.8571V164.885H203.143V141.185Z" fill="#F87676"/>
<path d="M203.143 178.435H33.8571V202.101H203.143V178.435Z" fill="#579352"/>
<path d="M203.143 215.657H33.8571V239.391H203.143V215.657Z" fill="#F87676"/>
<path fill-rule="evenodd" clip-rule="evenodd" d="M321.468 194.972C322.988 194.972 326.028 194.896 330.284 193.148C335.224 191.096 344.952 187.448 352.02 183.648C356.96 180.988 359.088 177.492 359.088 172.78C359.088 166.32 353.844 161 347.308 161H319.948C310.6 161 303 168.6 303 177.948C303 187.296 310.144 194.972 321.468 194.972Z" fill="#39594D"/>
<path fill-rule="evenodd" clip-rule="evenodd" d="M326.104 206.6C326.104 202.04 328.84 197.86 333.096 196.112L341.684 192.54C350.424 188.968 360 195.352 360 204.776C360 212.072 354.072 218 346.776 218H337.428C331.196 218 326.104 212.908 326.104 206.6Z" fill="#D18EE2"/>
<path d="M312.804 197.176C307.408 197.176 303 201.584 303 206.98V208.272C303 213.592 307.408 218 312.804 218C318.2 218 322.608 213.592 322.608 208.196V206.904C322.532 201.584 318.2 197.176 312.804 197.176Z" fill="#FF7759"/>
<path d="M202.286 254H33V277.686H202.286V254Z" fill="#579352"/>
<path d="M202.286 291.223H33V314.923H202.286V291.223Z" fill="#F87676"/>
<path d="M613.286 178H444V201.666H613.286V178Z" fill="#579352"/>
<path d="M612.286 217H443V240.686H612.286V217Z" fill="#579352"/>
<path d="M413.351 230.356C413.548 230.162 413.55 229.845 413.356 229.649L410.193 226.447C409.999 226.251 409.683 226.249 409.486 226.443C409.29 226.637 409.288 226.953 409.482 227.15L412.293 229.996L409.447 232.807C409.251 233.001 409.249 233.317 409.443 233.514C409.637 233.71 409.953 233.712 410.15 233.518L413.351 230.356ZM249.997 229.5L412.997 230.5L413.003 229.5L250.003 228.5L249.997 229.5Z" fill="black"/>
</svg>
