<svg width="86" height="83" viewBox="0 0 86 83" fill="none" xmlns="http://www.w3.org/2000/svg">
<path fill-rule="evenodd" clip-rule="evenodd" d="M45.2177 40.521L53.9794 44.6106C54.8729 44.9664 55.9443 44.7887 56.4822 44.2553C56.6555 44.0829 56.8467 43.9115 57.0423 43.7334C57.469 43.3509 57.9091 42.9537 58.2692 42.4768C58.9849 41.7656 59.1626 40.6987 58.6292 39.9871L54.5173 31.2735C55.9442 28.962 57.02 26.2946 57.7357 23.6273L67.0309 20.4265C67.9244 20.0707 68.4578 19.3596 68.64 18.2922V17.0476V15.803C68.64 14.9137 67.9244 14.0245 67.0309 13.6691L57.9135 10.2902C57.1979 7.62287 56.1265 4.95554 54.6951 2.644L55.5709 0.789337C73.201 6.10664 85.9546 22.3204 85.9546 41.6106C85.9546 49.0387 84.0431 56.0107 80.6913 62.0796C80.4779 61.5791 79.7979 61.25 79.2822 61.25L71.9163 61.6085C70.6583 59.9952 69.218 58.5605 67.6043 57.3056L67.9599 49.9542C67.9599 49.4158 67.6044 48.6989 67.062 48.5194C66.3463 48.161 65.8039 47.9815 65.0882 47.8025C64.5459 47.6231 63.8303 47.8025 63.4702 48.161L58.6159 53.5402C56.6422 53.1813 54.4862 53.1813 52.5081 53.5402L47.6582 48.161C47.2981 47.6231 46.578 47.4436 46.0401 47.8025C45.8845 47.8809 45.7245 47.925 45.5823 47.965C45.4 48.0163 45.2444 48.0603 45.1422 48.161C44.7821 48.34 44.422 48.5194 44.2442 48.5194C43.7063 48.6989 43.3462 49.4158 43.3462 49.9542L43.7063 57.3056C42.0883 58.5605 40.4702 59.9952 39.39 61.6085L32.024 61.25C31.4862 61.25 30.766 61.6085 30.5882 62.1464C30.2282 62.8638 30.0503 63.4017 29.868 64.1187C29.6902 64.6566 29.8681 65.374 30.2281 65.7324L35.6202 70.5737C35.2602 72.5459 35.2602 74.6976 35.6202 76.6698L30.2281 81.5111C29.9703 81.6821 29.797 81.935 29.7214 82.2107C12.4336 76.6516 0 60.5158 0 41.6106C0 35.1044 1.46248 28.9477 4.08077 23.4416C4.81869 26.117 5.89003 28.7843 7.32142 31.0958L3.03173 39.9871C2.67166 40.8764 2.8495 41.9433 3.38738 42.4768C3.56075 42.6486 3.73408 42.8392 3.9119 43.0361C4.28975 43.4506 4.68976 43.8937 5.1743 44.2553C5.88999 44.9664 6.96137 45.1441 7.67706 44.6106L16.4388 40.521C18.7637 41.9433 21.4442 43.0102 24.1247 43.7218L27.3431 52.9684C27.6987 53.8577 28.4145 54.3911 29.4858 54.5688H30.7393H31.9885C32.8864 54.5688 33.7799 53.8577 34.1356 52.9684L37.354 43.7218C40.3946 43.0102 42.8973 41.9433 45.2177 40.521ZM55.3441 81.7493C59.9539 81.7493 63.6925 78.0703 63.6925 73.5318C63.6925 68.9938 59.9539 65.3147 55.3441 65.3147C50.7344 65.3147 46.9958 68.9938 46.9958 73.5318C46.9958 78.0703 50.7344 81.7493 55.3441 81.7493ZM42.6661 16.959C42.6661 23.4176 37.4073 28.6529 30.9172 28.6529C24.427 28.6529 19.1682 23.4176 19.1682 16.959C19.1682 10.5008 24.427 5.26502 30.9172 5.26502C37.4073 5.26502 42.6661 10.5008 42.6661 16.959Z" fill="url(#paint0_linear_4_208)"/>
<defs>
<linearGradient id="paint0_linear_4_208" x1="11.3356" y1="-7.95675" x2="43.2117" y2="65.2546" gradientUnits="userSpaceOnUse">
<stop stop-color="#00708F"/>
<stop offset="1" stop-color="#1E3247"/>
</linearGradient>
</defs>
</svg>
