<svg width="160" height="160" viewBox="0 0 160 160" fill="none" xmlns="http://www.w3.org/2000/svg">
<g clip-path="url(#clip0_1_11)">
<path d="M151 80H159" stroke="black"/>
<path d="M9 80H1" stroke="black"/>
<path d="M80 151V159" stroke="black"/>
<path d="M80 9V1" stroke="black"/>
<path d="M150.73 86.1881L158.699 86.8853" stroke="black"/>
<path d="M9.27016 73.8119L1.3006 73.1147" stroke="black"/>
<path d="M73.8119 150.73L73.1147 158.699" stroke="black"/>
<path d="M86.188 9.27017L86.8853 1.30062" stroke="black"/>
<path d="M149.921 92.329L157.8 93.7182" stroke="black"/>
<path d="M10.0787 67.671L2.2002 66.2818" stroke="black"/>
<path d="M67.671 149.921L66.2818 157.8" stroke="black"/>
<path d="M92.329 10.0787L93.7182 2.20019" stroke="black"/>
<path d="M148.581 98.3762L156.308 100.447" stroke="black"/>
<path d="M11.4192 61.6238L3.69183 59.5533" stroke="black"/>
<path d="M61.6238 148.581L59.5533 156.308" stroke="black"/>
<path d="M98.3761 11.4193L100.447 3.69186" stroke="black"/>
<path d="M146.718 104.283L154.236 107.02" stroke="black"/>
<path d="M13.2818 55.7166L5.76428 52.9804" stroke="black"/>
<path d="M55.7166 146.718L52.9804 154.236" stroke="black"/>
<path d="M104.283 13.2818L107.02 5.76428" stroke="black"/>
<path d="M144.348 110.006L151.598 113.387" stroke="black"/>
<path d="M15.6521 49.9941L8.40167 46.6132" stroke="black"/>
<path d="M49.9941 144.348L46.6131 151.598" stroke="black"/>
<path d="M110.006 15.6521L113.387 8.40168" stroke="black"/>
<path d="M141.488 115.5L148.416 119.5" stroke="black"/>
<path d="M18.5122 44.5L11.584 40.5" stroke="black"/>
<path d="M44.5 141.488L40.5 148.416" stroke="black"/>
<path d="M115.5 18.5122L119.5 11.584" stroke="black"/>
<path d="M138.16 120.724L144.713 125.313" stroke="black"/>
<path d="M21.8402 39.2761L15.287 34.6875" stroke="black"/>
<path d="M39.2761 138.16L34.6875 144.713" stroke="black"/>
<path d="M120.724 21.8402L125.313 15.287" stroke="black"/>
<path d="M134.389 125.638L140.517 130.78" stroke="black"/>
<path d="M25.6108 34.3621L19.4825 29.2198" stroke="black"/>
<path d="M34.3621 134.389L29.2198 140.518" stroke="black"/>
<path d="M125.638 25.6108L130.78 19.4825" stroke="black"/>
<path d="M130.205 130.205L135.861 135.861" stroke="black"/>
<path d="M29.7954 29.7954L24.1386 24.1386" stroke="black"/>
<path d="M29.7954 130.205L24.1386 135.861" stroke="black"/>
<path d="M130.205 29.7954L135.861 24.1386" stroke="black"/>
<path d="M125.638 134.389L130.78 140.518" stroke="black"/>
<path d="M34.3621 25.6108L29.2198 19.4825" stroke="black"/>
<path d="M25.6109 125.638L19.4825 130.78" stroke="black"/>
<path d="M134.389 34.3621L140.518 29.2198" stroke="black"/>
<path d="M120.724 138.16L125.313 144.713" stroke="black"/>
<path d="M39.2761 21.8402L34.6874 15.287" stroke="black"/>
<path d="M21.8402 120.724L15.287 125.313" stroke="black"/>
<path d="M138.16 39.2761L144.713 34.6875" stroke="black"/>
<path d="M115.5 141.488L119.5 148.416" stroke="black"/>
<path d="M44.5 18.5122L40.5 11.584" stroke="black"/>
<path d="M18.5122 115.5L11.584 119.5" stroke="black"/>
<path d="M141.488 44.5L148.416 40.5" stroke="black"/>
<path d="M110.006 144.348L113.387 151.598" stroke="black"/>
<path d="M49.9941 15.6521L46.6132 8.40168" stroke="black"/>
<path d="M15.6522 110.006L8.4017 113.387" stroke="black"/>
<path d="M144.348 49.9941L151.598 46.6132" stroke="black"/>
<path d="M104.283 146.718L107.02 154.236" stroke="black"/>
<path d="M55.7166 13.2818L52.9804 5.76428" stroke="black"/>
<path d="M13.2818 104.283L5.76429 107.02" stroke="black"/>
<path d="M146.718 55.7166L154.236 52.9804" stroke="black"/>
<path d="M98.3762 148.581L100.447 156.308" stroke="black"/>
<path d="M61.6239 11.4193L59.5533 3.69186" stroke="black"/>
<path d="M11.4193 98.3762L3.69187 100.447" stroke="black"/>
<path d="M148.581 61.6238L156.308 59.5533" stroke="black"/>
<path d="M92.329 149.921L93.7182 157.8" stroke="black"/>
<path d="M67.671 10.0787L66.2818 2.20019" stroke="black"/>
<path d="M10.0786 92.329L2.20018 93.7182" stroke="black"/>
<path d="M149.921 67.671L157.8 66.2818" stroke="black"/>
<path d="M86.1881 150.73L86.8853 158.699" stroke="black"/>
<path d="M73.812 9.27017L73.1147 1.30062" stroke="black"/>
<path d="M9.27017 86.1881L1.30061 86.8853" stroke="black"/>
<path d="M150.73 73.8119L158.699 73.1147" stroke="black"/>
<path d="M79.875 36.9687C79.6265 36.9999 79.3988 37.1231 79.2368 37.314C79.0747 37.505 78.9902 37.7498 79 38V79H38C37.9376 78.9941 37.8749 78.9941 37.8125 79C37.5473 79.0249 37.3028 79.1541 37.1328 79.3592C36.9629 79.5643 36.8814 79.8285 36.9062 80.0937C36.9311 80.359 37.0603 80.6034 37.2654 80.7734C37.4705 80.9433 37.7348 81.0249 38 81H79V122C78.9981 122.133 79.0226 122.264 79.072 122.387C79.1214 122.51 79.1948 122.622 79.2878 122.716C79.3809 122.811 79.4917 122.886 79.614 122.937C79.7363 122.988 79.8675 123.014 80 123.014C80.1325 123.014 80.2637 122.988 80.386 122.937C80.5082 122.886 80.6191 122.811 80.7122 122.716C80.8052 122.622 80.8786 122.51 80.928 122.387C80.9774 122.264 81.0019 122.133 81 122V81H122C122.133 81.0019 122.264 80.9774 122.387 80.928C122.51 80.8786 122.622 80.8052 122.716 80.7122C122.811 80.6191 122.886 80.5082 122.937 80.386C122.988 80.2637 123.014 80.1325 123.014 80C123.014 79.8675 122.988 79.7363 122.937 79.614C122.886 79.4917 122.811 79.3809 122.716 79.2878C122.622 79.1948 122.51 79.1214 122.387 79.072C122.264 79.0226 122.133 78.9981 122 79H81V38C81.0057 37.8549 80.9797 37.7102 80.9238 37.5762C80.8679 37.4421 80.7835 37.3218 80.6764 37.2237C80.5694 37.1255 80.4422 37.0519 80.3038 37.0079C80.1654 36.9638 80.0191 36.9505 79.875 36.9687Z" fill="black"/>
</g>
<defs>
<clipPath id="clip0_1_11">
<rect width="160" height="160" fill="white"/>
</clipPath>
</defs>
</svg>
