<svg xmlns="http://www.w3.org/2000/svg" viewBox="0 0 500 500"><g id="freepik--background-complete--inject-7"><rect x="416.78" y="398.49" width="33.12" height="0.25" style="fill:#ebebeb"></rect><rect x="322.53" y="401.21" width="8.69" height="0.25" style="fill:#ebebeb"></rect><rect x="396.59" y="389.21" width="19.19" height="0.25" style="fill:#ebebeb"></rect><rect x="52.46" y="390.89" width="43.19" height="0.25" style="fill:#ebebeb"></rect><rect x="104.56" y="390.89" width="6.33" height="0.25" style="fill:#ebebeb"></rect><rect x="131.47" y="395.11" width="93.68" height="0.25" style="fill:#ebebeb"></rect><path d="M237,337.8H43.92a5.71,5.71,0,0,1-5.71-5.71V60.66A5.71,5.71,0,0,1,43.92,55H237a5.71,5.71,0,0,1,5.71,5.71V332.09A5.71,5.71,0,0,1,237,337.8ZM43.92,55.2a5.47,5.47,0,0,0-5.46,5.46V332.09a5.47,5.47,0,0,0,5.46,5.46H237a5.47,5.47,0,0,0,5.46-5.46V60.66A5.47,5.47,0,0,0,237,55.2Z" style="fill:#ebebeb"></path><path d="M453.31,337.8H260.21a5.72,5.72,0,0,1-5.71-5.71V60.66A5.72,5.72,0,0,1,260.21,55h193.1A5.71,5.71,0,0,1,459,60.66V332.09A5.71,5.71,0,0,1,453.31,337.8ZM260.21,55.2a5.47,5.47,0,0,0-5.46,5.46V332.09a5.47,5.47,0,0,0,5.46,5.46h193.1a5.47,5.47,0,0,0,5.46-5.46V60.66a5.47,5.47,0,0,0-5.46-5.46Z" style="fill:#ebebeb"></path><rect y="382.4" width="500" height="0.25" style="fill:#ebebeb"></rect><path d="M197.26,365l8.52,0a1.25,1.25,0,0,1,1.25,1.25v3a1.25,1.25,0,0,0,1.25,1.25h12.48a1.25,1.25,0,0,0,1.26-1.25v-11h0a1.25,1.25,0,0,1,1.25-1.24h2.66a1.25,1.25,0,0,0,1.25-1.25v-6a1.25,1.25,0,0,1,1.25-1.25h4.36a1.25,1.25,0,0,1,1.25,1.25v1.77a1.25,1.25,0,0,0,1.26,1.26h.4a1.25,1.25,0,0,0,1.25-1.25v-6.55a1.25,1.25,0,0,1,1.25-1.25h4.32a1.25,1.25,0,0,1,1.25,1.25v6.56a1.25,1.25,0,0,0,1.25,1.25h1.35a1.25,1.25,0,0,0,1.25-1.25V338.21h0v-6.62h.26v4.08l.08-.11,9.93-5.7c.21-.23.33,0,.33-.31v-8.16l.68-.49L271.3,312v-3.54h.27v3.35l.05,0v39.65a1.25,1.25,0,0,0,1.25,1.25h1.63a1.25,1.25,0,0,0,1.25-1.25l.39-14.8a1.17,1.17,0,0,1,.1-.41l2.43-5.06h.18v-5.73a1,1,0,0,1,1-1h.49v-4.06h.27v4.06h.25a1,1,0,0,1,1,1v.26H283v-.26a1,1,0,0,1,1-1h.43v-4.06h.27v4.06H285a1,1,0,0,1,1,1v5.73h.18l2.43,5.06a1,1,0,0,1,.1.41l.4,14.79a1.25,1.25,0,0,0,1.25,1.25h2.29a1.25,1.25,0,0,1,1.25,1.25v1.72a1.25,1.25,0,0,0,1.25,1.25h1.64a1.25,1.25,0,0,1,1.23,1l4.36,22.89a1.64,1.64,0,0,1,0,.23,1.24,1.24,0,0,1-1.25,1.25H197.27C197,382.3,197.26,365,197.26,365Z" style="fill:#e0e0e0"></path><path d="M212.89,383.07s-46.71-23.66-53.9-24.19-31.61,22.62-31.61,22.62Z" style="fill:#f0f0f0"></path><path d="M292.15,383.27s35.15-30.94,48.4-31.46S449.7,381.7,449.7,381.7Z" style="fill:#f0f0f0"></path><path d="M172.7,383.47s-67.5-23.66-77.89-24.19S49.13,381.9,49.13,381.9Z" style="fill:#ebebeb"></path><ellipse cx="374.85" cy="300.32" rx="13.63" ry="9.9" transform="translate(-88.97 425.11) rotate(-53.76)" style="fill:#e6e6e6"></ellipse><path d="M343.16,263.92c13.65-12.9,31.88-14.64,40.72-3.87s4.93,29.95-8.72,42.85-31.88,14.64-40.72,3.88S329.51,276.83,343.16,263.92Z" style="fill:#ebebeb"></path><path d="M403.65,265.28c9.7-9.16,22.65-10.39,28.92-2.75s3.51,21.28-6.19,30.44-22.64,10.4-28.92,2.75S394,274.45,403.65,265.28Z" style="fill:#e6e6e6"></path><ellipse cx="425.6" cy="297.06" rx="24.23" ry="17.82" transform="translate(-79.62 415.93) rotate(-48.15)" style="fill:#ebebeb"></ellipse><path d="M382.36,255.11c13.37-12.64,31.23-14.34,39.89-3.8s4.83,29.34-8.54,42-31.23,14.34-39.89,3.8S369,267.75,382.36,255.11Z" style="fill:#f0f0f0"></path><path d="M356.6,276.16c7.28-7.31,17-8.29,21.7-2.19s2.64,17-4.64,24.26-17,8.29-21.7,2.2S349.33,283.47,356.6,276.16Z" style="fill:#f0f0f0"></path><ellipse cx="422.82" cy="308.46" rx="13.63" ry="9.9" transform="translate(-75.93 467.13) rotate(-53.76)" style="fill:#f0f0f0"></ellipse><path d="M416.11,320.3,406.87,328c.74,10.88,1.35,35.92,1.35,35.92l3.28,17.51-28.95.24s1.32-14.78,1.32-15.59S389.46,337,389.46,337l2-15.87L376.51,317l-2.72-7.08-11-5.57-5.36-7.4,2.07-.45,5.92,6.83,6.91,1.35-3-6.3h3.29L380.91,313l10.6,1.95-1.39-20.48c10.2,2.88,11.19-2.36,11.19-2.36s3.5,27.55,4.73,30.69l5.46-2.47,5.93-8.41h2.63Z" style="fill:#e6e6e6"></path><path d="M128.24,296.53c-5.1-5.12-11.92-5.81-15.22-1.54s-1.85,11.9,3.26,17,11.91,5.81,15.22,1.54S133.34,301.66,128.24,296.53Z" style="fill:#e6e6e6"></path><path d="M153,269c-13.25-12.52-30.94-14.2-39.52-3.76s-4.79,29.07,8.46,41.59,30.94,14.21,39.52,3.76S166.27,281.48,153,269Z" style="fill:#ebebeb"></path><path d="M94.31,270.27c-9.41-8.89-22-10.09-28.07-2.67s-3.4,20.65,6,29.54,22,10.09,28.07,2.67S103.72,279.17,94.31,270.27Z" style="fill:#e6e6e6"></path><path d="M84,287.67c-9.41-8.89-22-10.09-28.07-2.67s-3.41,20.65,6,29.54S84,324.63,90,317.21,93.45,296.57,84,287.67Z" style="fill:#ebebeb"></path><path d="M115,260.4c-13-12.27-30.31-13.92-38.71-3.69s-4.69,28.47,8.29,40.74,30.31,13.92,38.71,3.69S128,272.67,115,260.4Z" style="fill:#f0f0f0"></path><ellipse cx="131.69" cy="291.54" rx="13.29" ry="18.3" transform="translate(-146.87 134.26) rotate(-36.24)" style="fill:#f0f0f0"></ellipse><path d="M81.69,304.43c-5.1-5.12-11.91-5.81-15.22-1.54s-1.84,11.9,3.26,17,11.92,5.81,15.22,1.54S86.8,309.56,81.69,304.43Z" style="fill:#f0f0f0"></path><path d="M82.22,323.66l9,7.49c-.71,10.55-1.3,34.86-1.3,34.86l-3.19,17,28.09.23s-1.27-14.35-1.27-15.13-5.43-28.28-5.43-28.28l-1.92-15.4,14.49-4,2.64-6.86,10.65-5.42,5.2-7.18-2-.44-5.74,6.64-6.71,1.3,2.87-6.1h-3.19l-8,14.15-10.28,1.89,1.34-19.87c-9.9,2.79-10.86-2.3-10.86-2.3S93.19,323,92,326.06l-5.3-2.4-5.75-8.15H78.39Z" style="fill:#f5f5f5"></path><path d="M317.36,146.32l33.47-1.95a6.1,6.1,0,0,1,3.39.8h0c11.06,9.58,23,3.19,28.24-.59a12.92,12.92,0,0,1,6.82-2.45L426.56,140c14-.81,16.22-20.59,2.74-24.42l-.52-.14c13.91-13-19.65-36.83-52.41.74,2-12-28.69-5.92-37.22,10.8C335.17,116.51,306.72,136.67,317.36,146.32Z" style="fill:#f0f0f0"></path><path d="M141.07,174.91l-20.55-.39-1.7.72a33.72,33.72,0,0,1-29.13-1.32h0l-17.18-.33s-16-6.36-13.58-22.36,26.41-2.17,26.41-2.17-6.93-22.51,16.45-15.71,25.25,29,25.25,29S158,157.58,141.07,174.91Z" style="fill:#f0f0f0"></path><circle cx="249.8" cy="124.59" r="15.39" style="fill:#f0f0f0"></circle><path d="M230.93,276.94c0,.1,0,.19,0,.28a15.43,15.43,0,0,1-7.06,12.21,14.76,14.76,0,0,1-10.25,7.5A13.52,13.52,0,0,1,202,293.55a11.37,11.37,0,0,1-17.52-12,14.24,14.24,0,0,1,.48-1.53c1.5-3.87,5-7.35,9-7.85a8.23,8.23,0,0,1-.82-3.93,8.9,8.9,0,0,1,.79-3.4,7.89,7.89,0,0,1,1.05-1.68,8.65,8.65,0,0,1,8.59-2.91c2.67-1.06,6.3-1.57,8.91-.36a10.38,10.38,0,0,1,5.26,6.34c3-1.83,7.19-1.05,9.78,1.36A12.06,12.06,0,0,1,230.93,276.94Z" style="fill:#f5f5f5"></path><path d="M230.93,276.94a15,15,0,0,1-6.29,8.2,14.75,14.75,0,0,1-10.25,7.49,13.55,13.55,0,0,1-11.67-3.37A11.35,11.35,0,0,1,184.91,280c1.5-3.87,5-7.35,9-7.85a8.23,8.23,0,0,1-.82-3.93,8,8,0,0,1,1.59-.36,8.46,8.46,0,0,1-.8-3,7.89,7.89,0,0,1,1.05-1.68,8.65,8.65,0,0,1,8.59-2.91c2.67-1.06,6.3-1.57,8.91-.36a10.38,10.38,0,0,1,5.26,6.34c3-1.83,7.19-1.05,9.78,1.36A12.06,12.06,0,0,1,230.93,276.94Z" style="fill:#e0e0e0"></path><path d="M306.87,271.19c-8.48,9.74-23.73,11-38.2,4.46a2.27,2.27,0,0,0-2.38.33c-2.82,2.51-7,3.07-11.18,1.79a2.12,2.12,0,0,0-2.64,1.14,9.88,9.88,0,0,1-1.62,2.86c-4,4.84-11.77,4.57-18.22-.32a2.24,2.24,0,0,0-1.37-.44,2.21,2.21,0,0,0-1.71.76c-3.78,4.61-11.05,4.58-17.31.33a2.32,2.32,0,0,0-2.62,0c-8.7,6.15-23.08,3.89-34.15-6A38.44,38.44,0,0,1,165.75,263c-3.77-8.61-3.42-17.61,1.78-23.58a17,17,0,0,1,6.83-4.72,3.63,3.63,0,0,0,2.47-3.51,18.67,18.67,0,0,1,4.27-13.44,16.81,16.81,0,0,1,4.52-3.64,14.68,14.68,0,0,0,5.87-5.82,23.2,23.2,0,0,1,2.84-4.09c9.94-11.41,33.9-10,48.67,2.12A11,11,0,0,0,253.56,208c12.21-4.42,28.87-.36,42.15,11.46,10,9,16,20.39,17,31C313.57,258.25,311.71,265.64,306.87,271.19Z" style="fill:#e6e6e6"></path><path d="M306.87,271.19c-8.48,9.74-23.73,11-38.2,4.46a2.27,2.27,0,0,0-2.38.33c-2.82,2.51-7,3.07-11.18,1.79a2.12,2.12,0,0,0-2.64,1.14,9.88,9.88,0,0,1-1.62,2.86c-4,4.84-11.77,4.57-18.22-.32a2.24,2.24,0,0,0-1.37-.44,2.21,2.21,0,0,0-1.71.76c-3.78,4.61-11.05,4.58-17.31.33a2.32,2.32,0,0,0-2.62,0c-8.7,6.15-23.08,3.89-34.15-6A38.44,38.44,0,0,1,165.75,263,18.63,18.63,0,0,1,170,249.69a16.87,16.87,0,0,1,6.82-4.71,3.63,3.63,0,0,0,2.47-3.52A18.66,18.66,0,0,1,183.6,228a16.43,16.43,0,0,1,4.52-3.64,14.74,14.74,0,0,0,5.87-5.82,22.81,22.81,0,0,1,2.85-4.1c9.93-11.4,33.88-10,48.67,2.12a11,11,0,0,0,10.55,1.65c12.21-4.41,28.87-.36,42.14,11.47a53.54,53.54,0,0,1,14.55,20.68C313.57,258.25,311.71,265.64,306.87,271.19Z" style="fill:#ebebeb"></path><path d="M302.5,264.31a5.94,5.94,0,0,1-6.37.58c.59,2.36-.1,5.24-1.86,6.43a5.14,5.14,0,0,1-6.11-.62c-3,3.54-12.72,7.5-21,4.33h0a17.24,17.24,0,0,1-9.18-8.63,9.81,9.81,0,0,1,.8-9.72,15.71,15.71,0,0,1,7.46-5.36A14.39,14.39,0,0,1,278,240.77h0l.52-.06c5.5-.48,11.48,2.91,14.67,8.3a4.88,4.88,0,0,1,6.22,3.94,6.58,6.58,0,0,1,4.95,4.86A6.49,6.49,0,0,1,302.5,264.31Z" style="fill:#f5f5f5"></path><path d="M299.09,262.87a4.93,4.93,0,0,1-5.74.57c.52,2.36.2,5.5-1.39,6.68a4.28,4.28,0,0,1-5.52-.62c-2.57,3.43-11.56,7.78-19.3,5.53h0a17.24,17.24,0,0,1-9.18-8.63,9.81,9.81,0,0,1,.8-9.72,15.71,15.71,0,0,1,7.46-5.36A14.39,14.39,0,0,1,278,240.77h0c4.47.67,9.05,5.4,11.6,10.19,4.52-1.21,5.62,3.56,5.61,3.93C302.14,255,300.64,261.45,299.09,262.87Z" style="fill:#f5f5f5"></path><path d="M219.17,300.93l10.35,9.62c-.83,13.56-1.62,49.94-1.62,49.94l-3.68,21.84,32.45.3s-1.48-18.45-1.48-19.45-6.27-36.34-6.27-36.34l-3.56-34.31,16.72-5.1,3.06-8.82,12.3-7,6-9.23-2.33-.56-6.63,8.52-7.74,1.68,3.31-7.85h-3.69l-9.21,18.19-11.88,2.44,1.14-25.65c-9.5,4.44-12.54-2.95-12.54-2.95s-2,43.86-3.42,47.78h0a24.81,24.81,0,0,1-9.8-8.88l-3-4.69h-2.95Z" style="fill:#ebebeb"></path><path d="M248.28,284.22l-2.55.63a5.25,5.25,0,0,1-6.49-5.41l1.13-18.9a12.76,12.76,0,0,0,6-1.37l-1.05,24.55,0,1.06v.05Z" style="fill:#f5f5f5"></path><path d="M263.9,277.2l-4.46,8.63-17.57,4.74a4.06,4.06,0,0,0-3,4l.46,24.86s3.79-15.19,3.79-14.51,1.44,24.69,1.44,24.69l-4,36.64,7.17-25.05-3.25,41.32,12.17.11s-1.48-18.45-1.48-19.45-6.27-36.34-6.27-36.34l-3.22-31a4.08,4.08,0,0,1,2.86-4.31l13.52-4.12,3.06-8.82,12.3-7,6-9.23-1.43-.34c-2.51,3.77-6,9.45-6,9.45Z" style="fill:#f5f5f5"></path></g><g id="freepik--Shadow--inject-7"><ellipse id="freepik--path--inject-7" cx="250" cy="412.39" rx="193.89" ry="11.32" style="fill:#f5f5f5"></ellipse></g><g id="freepik--Stone--inject-7"><path d="M243.88,298.61c-18.89-3.75-38.77-.49-56.49,7.06S154,324.89,139.88,338.05c-9.48,8.87-18.77,19.46-20,32.37A30.7,30.7,0,0,0,131,396.87c7.8,6.22,36,10.25,45.47,7.11,43.46-14.4,74.71,1.44,120.47-.09,10.23-.34,20.54-.69,30.5-3s19.68-6.85,26.62-14.37c10.4-11.26,13.21-28.38,8.79-43.05s-15.38-26.86-28.57-34.68-28.46-11.56-43.73-12.91S258.92,301.59,243.88,298.61Z" style="fill:#263238"></path><path d="M244.08,303.61c-18.89-3.75-38.77-.49-56.49,7.06s-33.44,19.22-47.51,32.38c-9.48,8.87-18.77,19.46-20,32.37a30.7,30.7,0,0,0,11.18,26.45c7.8,6.22,36,10.25,45.47,7.11,43.46-14.4,74.71,1.44,120.47-.09,10.23-.34,20.54-.69,30.5-3s19.68-6.85,26.62-14.37c10.4-11.26,13.21-28.38,8.79-43.05s-15.38-26.86-28.57-34.68-28.46-11.56-43.73-12.91S259.12,306.59,244.08,303.61Z" style="fill:#fff;opacity:0.30000000000000004"></path><path d="M332.39,307.65c-13.87,11.27-44.57,20-87.29,22.68-25.53,1.62-73.16-.81-84.78-9.18a141.8,141.8,0,0,1,27.07-15.47c17.72-7.56,37.59-10.82,56.49-7.07,15,3,31.44-4.12,46.71-2.77C305.12,297.12,319.66,300.57,332.39,307.65Z" style="fill:#fff;opacity:0.30000000000000004"></path><path d="M355.91,384.36c-.57.73-1.18,1.44-1.81,2.12-6.94,7.52-16.66,12-26.62,14.38s-20.27,2.69-30.5,3c-45.76,1.53-77-14.31-120.47.1-9.47,3.14-37.67-.89-45.47-7.12a28.91,28.91,0,0,1-5-5.2,79.34,79.34,0,0,0,26.55,2.24c16.72-1.27,32.82-6.58,49-11.11s32.89-8.35,49.55-6.52c13.29,1.46,25.91,6.43,38.92,9.46A135.65,135.65,0,0,0,355.91,384.36Z" style="opacity:0.2"></path><path d="M237.37,346.82c-1,.67-2.08,1.66-2.07,2.9a2.91,2.91,0,0,0,2.16,2.53,8,8,0,0,0,3.52.06,15.08,15.08,0,0,0,6.4-2c3.28-2.18,4.14-5.85-.42-5.89A17.28,17.28,0,0,0,237.37,346.82Z" style="opacity:0.2"></path><path d="M255.83,389.75a3.31,3.31,0,0,0,0,1.93,1.54,1.54,0,0,0,1,1.15,1.19,1.19,0,0,0,.91-.43,4,4,0,0,0,1.31-2c.46-1.67,0-3.87-1.14-3.29A4,4,0,0,0,255.83,389.75Z" style="opacity:0.2"></path><path d="M172.09,393.16a3.36,3.36,0,0,0,0,1.92,1.55,1.55,0,0,0,1,1.15,1.2,1.2,0,0,0,.92-.43,4,4,0,0,0,1.31-2c.46-1.67,0-3.87-1.14-3.29A4,4,0,0,0,172.09,393.16Z" style="opacity:0.2"></path><path d="M323.46,333.75a3.36,3.36,0,0,0,0,1.92,1.55,1.55,0,0,0,1,1.15,1.2,1.2,0,0,0,.92-.43,4,4,0,0,0,1.31-2c.46-1.67,0-3.87-1.14-3.29A4,4,0,0,0,323.46,333.75Z" style="opacity:0.2"></path><path d="M301.05,348.28a3.36,3.36,0,0,0,0,1.92,1.55,1.55,0,0,0,1,1.15,1.14,1.14,0,0,0,.92-.43,4,4,0,0,0,1.31-2c.46-1.68,0-3.88-1.14-3.3A4,4,0,0,0,301.05,348.28Z" style="opacity:0.2"></path><path d="M222,392.27a4.45,4.45,0,0,0-5.94-1.68,6.55,6.55,0,0,0,4.44,5.87,5.78,5.78,0,0,0,6.4-2.88c.08-.9-1.14-1.51-1.7-.85Z" style="opacity:0.2"></path><g style="opacity:0.2"><path d="M306.39,340.79c-.1,1.49-.21,3-.31,4.47a2.68,2.68,0,1,0,1.45-5.06Z"></path></g><g style="opacity:0.2"><path d="M178.12,317.26c-.1,1.49-.21,3-.31,4.48a2.68,2.68,0,1,0,1.45-5.06Z"></path></g><g style="opacity:0.2"><path d="M305.65,315.2c.56,1.39,1.11,2.78,1.66,4.17a2.68,2.68,0,1,0-.88-5.19Z"></path></g><g style="opacity:0.2"><path d="M216.14,380.35c-1-.47-2,1-1.48,1.91a2.19,2.19,0,0,0,2.85.58,6.24,6.24,0,0,0,2.18-2.32l-2.25.28Z"></path></g><g style="opacity:0.2"><path d="M220.75,361.55c-.71-.35-1.47.71-1.09,1.39a1.6,1.6,0,0,0,2.09.43,4.67,4.67,0,0,0,1.6-1.7l-1.65.21Z"></path></g><g style="opacity:0.2"><path d="M302,321.79c-.71-.35-1.47.71-1.09,1.4a1.61,1.61,0,0,0,2.09.42,4.67,4.67,0,0,0,1.6-1.7l-1.65.21Z"></path></g><g style="opacity:0.2"><path d="M205.13,330.05c-.71-.35-1.47.71-1.08,1.4a1.59,1.59,0,0,0,2.08.42,4.67,4.67,0,0,0,1.6-1.7l-1.65.21Z"></path></g><g style="opacity:0.2"><path d="M175.8,382.71c-.7-.35-1.47.72-1.08,1.4a1.6,1.6,0,0,0,2.09.42,4.61,4.61,0,0,0,1.59-1.69l-1.65.2Z"></path></g><g style="opacity:0.2"><path d="M269,332.36c-.71-.35-1.47.71-1.08,1.39a1.59,1.59,0,0,0,2.08.42,4.64,4.64,0,0,0,1.6-1.69l-1.65.2Z"></path></g><g style="opacity:0.2"><path d="M307.31,369.82c-.7-.34-1.47.72-1.08,1.4a1.6,1.6,0,0,0,2.09.42,4.61,4.61,0,0,0,1.59-1.69l-1.65.2Z"></path></g><g style="opacity:0.2"><path d="M261.25,331.31c-.7-.35-1.47.72-1.08,1.4a1.6,1.6,0,0,0,2.09.42,4.57,4.57,0,0,0,1.59-1.7l-1.65.21Z"></path></g><g style="opacity:0.2"><path d="M254.05,321.79c-.71-.35-1.47.71-1.08,1.4a1.59,1.59,0,0,0,2.08.42,4.59,4.59,0,0,0,1.6-1.7l-1.65.21Z"></path></g><g style="opacity:0.2"><path d="M248.29,318.39c-.71-.35-1.47.71-1.09,1.4a1.61,1.61,0,0,0,2.09.42,4.67,4.67,0,0,0,1.6-1.7l-1.65.21Z"></path></g><path d="M212.68,371.65c-.32-.29-.66.58-.49,1.13s.62.64.93.35a3.81,3.81,0,0,0,.71-1.38l-.73.16Z" style="opacity:0.2"></path><g style="opacity:0.2"><path d="M180.07,357.74c-.25-1.05-2-.93-2.41.08a2.18,2.18,0,0,0,1.37,2.56,6.44,6.44,0,0,0,3.18.2L180.55,359Z"></path></g><g style="opacity:0.2"><path d="M197.48,349.27c-.18-.77-1.49-.68-1.77.06a1.6,1.6,0,0,0,1,1.87,4.69,4.69,0,0,0,2.33.15l-1.22-1.14Z"></path></g><g style="opacity:0.2"><path d="M197.48,365.3c-.18-.77-1.49-.68-1.77.06a1.61,1.61,0,0,0,1,1.87,4.69,4.69,0,0,0,2.33.15l-1.22-1.14Z"></path></g><path d="M184.55,349.51c0-.42-.86-.13-1.18.35s-.09.89.33.94a3.9,3.9,0,0,0,1.52-.34l-.6-.46Z" style="opacity:0.2"></path></g><g id="freepik--character-3--inject-7"><polygon points="409.47 401.76 280.41 401.76 254.5 413.04 435.37 413.04 409.47 401.76" style="fill:#407BFF"></polygon><polygon points="409.47 401.76 280.41 401.76 254.5 413.04 435.37 413.04 409.47 401.76" style="fill:#fff;opacity:0.7000000000000001"></polygon><polygon points="363.86 360.25 362.72 376.81 332.68 376.81 332.68 360.25 363.86 360.25" style="fill:#ffb573"></polygon><path d="M364.51,322.18a3.32,3.32,0,0,1,2.71,3.07c.22,4.5.27,14.88-2.49,30.84-.62,3.61-.43,13.15-.43,13.15l-33.08.16s-1.25-22.5-6.58-43.57a3.27,3.27,0,0,1,2.49-4C333,320.54,346.21,318.68,364.51,322.18Z" style="fill:#407BFF"></path><path d="M364.59,322.24c4.17-.16,19.81,20,20.71,24.59.7,3.52-8.05,4.29-17.12,4.27-9.48,0-14.32-.16-14.86-2.11-1.05-3.81-2.09-11.59,0-12.27,1.16-.37,4.95.57,5.24,3.21a20.24,20.24,0,0,1-.13,5.25l15-2.66s-5.61-7.18-8.29-9.61C362.1,330.16,361.57,322.36,364.59,322.24Z" style="fill:#ffb573"></path><path d="M350.46,329.57c-10.46.66-15.44-6.2-16.45-8.86a98.86,98.86,0,0,1,24.43.48C359.09,323.82,357.27,329.14,350.46,329.57Z" style="fill:#ffb573"></path><path d="M326.45,327.12l1.95.56s3.32,7.46.11,20.76a162.45,162.45,0,0,0-3-19Z" style="opacity:0.1"></path><path d="M341.53,304.1c.88,4.66,1.75,13.17-1.53,16.26a36.33,36.33,0,0,0,7.78,6.85A4.72,4.72,0,0,0,355,322.4a6.57,6.57,0,0,0-.54-1.76c-5.17-1.26-5-5.31-4.1-8.94Z" style="fill:#ffb573"></path><path d="M349.87,315.58a12.86,12.86,0,0,1,.48-3.88l-7.09-6.11a10.6,10.6,0,0,0-.09,3.18C343.46,311.68,347,314.73,349.87,315.58Z" style="opacity:0.2;isolation:isolate"></path><path d="M338.43,297.54c1.31,7.2,1.72,10.28,5.83,13.56,6.18,4.93,14.75,1.74,15.6-5.71.78-6.7-1.5-17.32-9-19.39a10,10,0,0,0-12.47,11.54Z" style="fill:#ffb573"></path><path d="M354.2,299.56a17.31,17.31,0,0,0,3.41,3.48,2.87,2.87,0,0,1-2.18,1.06Z" style="fill:#ed893e"></path><path d="M353.7,307.53a5.57,5.57,0,0,0,1,0,.19.19,0,0,0,.16-.19h0a.18.18,0,0,0-.19-.15,6,6,0,0,1-4.59-1.41.17.17,0,0,0-.24,0,.17.17,0,0,0,0,.25A6.3,6.3,0,0,0,353.7,307.53Z" style="fill:#407BFF"></path><path d="M347.4,298.74a.36.36,0,0,0,.24-.15,4.54,4.54,0,0,1,2.76-1.71.35.35,0,0,0,0-.7,5.08,5.08,0,0,0-3.35,2,.39.39,0,0,0,.33.58Z" style="fill:#263238"></path><path d="M352.1,299.71a.24.24,0,0,0,0-.23.19.19,0,0,0-.28,0h0c-1.22,1.22-2.44,1.35-4.14,1.08a.2.2,0,0,0-.24.15.19.19,0,0,0,.15.24,4.51,4.51,0,0,0,4.51-1.19Z" style="fill:#263238"></path><path d="M360,297.83a.22.22,0,0,0,0-.23.21.21,0,0,0-.28,0h0c-1.23,1.22-2.44,1.35-4.15,1.08a.22.22,0,0,0-.24.15.2.2,0,0,0,.15.24,4.53,4.53,0,0,0,4.52-1.19Z" style="fill:#263238"></path><path d="M358.53,296.2a.35.35,0,0,0,.12-.63h0a3.48,3.48,0,0,0-3.16-.42.37.37,0,0,0-.19.47.35.35,0,0,0,.46.18,2.77,2.77,0,0,1,2.51.35A.3.3,0,0,0,358.53,296.2Z" style="fill:#263238"></path><path d="M364.5,367.11c.35,6.95,6.56,11.94,13.25,14-9.92,4.82-21.67,13.26-32,17-10.07-3.59-21.63-12.86-30.35-19,7-1.19,11.5-2.21,15.82-11.94Z" style="fill:#263238"></path><path d="M287.27,395.17c-.7-6.77-3-11.85,20.63-16.72,5.79-1.2,18.9-1,24.76-1,11.46-.1,23.22-.25,33.47-.39a246.71,246.71,0,0,1,27.12.84c12.13,1.4,19.86,7,17.28,17.28C406.79,410,363.94,405.3,346.6,405.3S289,412.38,287.27,395.17Z" style="fill:#263238"></path><path d="M291.94,386.81s5.13-5.76,16.9-1.18,14.54,10.66,30.22,15.63l-4.6,3.77-27.9-5.34-13.74-7.2Z" style="opacity:0.4"></path><path d="M403.55,385.93s-7.06-3.95-16.22,0-15.23,10.94-26.53,14.64l.8,3.26,41.54-12.1Z" style="opacity:0.4"></path><path d="M352.07,409.85s-9,5.48-11.92,11.3c-.64,1.26-4-.57-2.85-3.69,1.91-5.18,2-3.87,3.61-8.3,1.33-3.75,2.11-6.49,3.13-9.52a.91.91,0,0,1,.11-.22,1.18,1.18,0,0,1,1.64-.37l6.27,3.92,8.7-1.59,1.11,8.05Z" style="fill:#ffb573"></path><path d="M352.07,409.85s-9,5.48-11.92,11.3c-.64,1.26-4-.57-2.85-3.69,1.91-5.18,2-3.87,3.61-8.3,1.33-3.75,2.11-6.49,3.13-9.52a.91.91,0,0,1,.11-.22,1.18,1.18,0,0,1,1.64-.37l6.27,3.92,8.7-1.59,1.11,8.05Z" style="opacity:0.2"></path><path d="M406.85,387.81c-2.75-2.63-7-3.27-15.21,0s-23.71,11.44-36.3,14.22l1.72,8.18s39.4-2.67,47.7-7.22S409.85,390.68,406.85,387.81Z" style="fill:#263238"></path><path d="M345,409.85s9,5.48,11.91,11.3c.64,1.26,4-.57,2.86-3.69-1.92-5.18-2.05-3.87-3.62-8.3-1.33-3.75-2.11-6.49-3.13-9.52a.65.65,0,0,0-.11-.22,1.17,1.17,0,0,0-1.63-.37L345,403l-8.71-1.59-1.1,8.05Z" style="fill:#ffb573"></path><path d="M290.64,387.81c2.75-2.63,7-3.27,15.21,0s23.71,11.44,36.3,14.22l-1.72,8.18s-39.4-2.67-47.7-7.22S287.64,390.68,290.64,387.81Z" style="fill:#263238"></path><path d="M325.36,323c-6,3.56-18.2,19.44-14.36,25.2,1.9,2.85,5.8,4.24,14.45,4.22,9,0,25.51-1.73,26-3.58,1-3.64,4.27-12-.31-12-1.19,0-3.18-1.08-4,0-1.73,2.18-1.07,8.93-1.07,8.93l-25.26-1.93s5.05-8.93,7.61-11.25C331.31,330,331.6,319.33,325.36,323Z" style="fill:#ffb573"></path><path d="M348.76,287.67a7.87,7.87,0,0,0-6.17,8.43v.07a3.28,3.28,0,0,0,.68,1.9,1.38,1.38,0,0,0,1.82.27c.34-1,.55-1.76.88-2.78a1.78,1.78,0,1,0,3.08-.76c.52.23.42.64.61,1.15a1.66,1.66,0,0,0,2.34.88,1.69,1.69,0,0,0,0-2.92s1,0,1.93,1.72c.38.67,1.58.45,2-.17a1.41,1.41,0,0,0-.45-2,7.94,7.94,0,0,0,2.1,1.45,1.27,1.27,0,0,0,1.83-1.4,7.15,7.15,0,0,0-2.15-3.78,9.31,9.31,0,0,0-6-2.34A9.91,9.91,0,0,0,348.76,287.67Z" style="fill:#263238"></path><path d="M348,285.57a2.58,2.58,0,0,1-2.29.46,6.28,6.28,0,0,0-2.61-1.69A7,7,0,0,1,348,285.57Z" style="fill:#ffb573"></path><path d="M338.12,284.64a11.62,11.62,0,0,0-2.74,4.05A49.84,49.84,0,0,0,332.24,299a17.1,17.1,0,0,0-.24,6.79,7.31,7.31,0,0,0,3.92,5.28c2.09.91,4.9.24,6-1.77,2,0,2.86-2.68,2.69-4.71s-1.24-3.87-1.69-5.86a10.21,10.21,0,0,1,5.89-11.29C347.05,285.7,340.59,282.41,338.12,284.64Z" style="fill:#263238"></path><path d="M361.07,306.17c-.46.58-1.47.28-1.85-.35a3.52,3.52,0,0,1-.25-2.16,31.23,31.23,0,0,0,.06-7.23,11.64,11.64,0,0,0-2.91-6.5c-1.67-1.74-4.29-3.1-6.64-2.59-2.1-1.54-3.19-2-6.92-3.15,1.22-2.05,3.55-2.68,8.42-1a18,18,0,0,1,8.57,5.88c3,3.87,4,9,3.8,13.88a8.33,8.33,0,0,1-.91,3.91,3.8,3.8,0,0,1-1.56,1.4,1,1,0,0,1-1.39-1.23c0-.12.08-.24.11-.36C359.87,306.91,361.09,306.55,361.07,306.17Z" style="fill:#263238"></path><path d="M346,305.56s5.71-3.62,9.45-3.86S359,302,359,302a8.67,8.67,0,0,1-4.82,11.49s-6-.17-8.19-2.26C346,311.2,347,309.26,346,305.56Z" style="fill:#407BFF"></path><path d="M346,305.56s5.71-3.62,9.45-3.86S359,302,359,302a8.67,8.67,0,0,1-4.82,11.49s-6-.17-8.19-2.26C346,311.2,347,309.26,346,305.56Z" style="fill:#fff;opacity:0.5"></path><path d="M347.06,306.42s6.1-3.39,8.67-3.42a6.9,6.9,0,0,1,3.61.66,9.62,9.62,0,0,1,.18,2s-2.1-1.71-12.35,2Z" style="fill:#fff;opacity:0.2"></path><path d="M347.17,308.32s8.87-3.14,12.1-1.35a10.18,10.18,0,0,1-1.59,3.55s-3.05-1.67-10.62-.79Z" style="fill:#fff;opacity:0.2"></path><path d="M346.86,310.18s8.4-.54,9.6,1.29l-1.41,1s-3.37.4-8.37-1.77Z" style="fill:#fff;opacity:0.2"></path><path d="M346.41,311.51c-4.6-.83-5.13-4.6-5-6.77a.81.81,0,0,1,.43-.74c1.15-.6,4.37,1.38,4.73,1.61l-.2.32c-.94-.59-3.55-2-4.36-1.59a.47.47,0,0,0-.22.42c-.09,2,.4,5.6,4.72,6.37Z" style="fill:#263238"></path></g><g id="freepik--character-2--inject-7"><path d="M277.49,262s-2.11.35,18.95,17.08l5.91-2.52a2.9,2.9,0,0,1,3.08.52h0a2.89,2.89,0,0,1,.66,3.38l-1.88,3.92a2.87,2.87,0,0,1-3.06,1.6l-6.92-2.87s-20.09-10.76-22.89-16.87C271.34,266.22,275.78,260.75,277.49,262Z" style="fill:#ffc3bd"></path><path d="M269.13,224.46c3.38,1,5.16,4.26,7,18.84s1.38,18.05,5.79,20.63c0,0-5,6.6-8,8.73,0,0-2-2.65-4.73-9.79s-5-12.09-6.31-18.55C261.85,239.32,255.21,220.28,269.13,224.46Z" style="fill:#407BFF"></path><path d="M269.13,224.46c3.38,1,5.16,4.26,7,18.84s1.38,18.05,5.79,20.63c0,0-5,6.6-8,8.73,0,0-2-2.65-4.73-9.79s-5-12.09-6.31-18.55C261.85,239.32,255,220.28,269.13,224.46Z" style="opacity:0.1"></path><path d="M270.5,248.3c-.76,4.87-2.44,13.41-3,17.69-.16,1.32-.32,7.06,1,16.19a223.58,223.58,0,0,1,1.5,22.6l-44.67-3c1.57-20.44,11.52-34.16,11.51-37,0-3.87-1.53-5.54-5.29-18Z" style="fill:#ffc3bd"></path><path d="M220.92,262s2.11.35-18.95,17.08l-5.91-2.52a2.9,2.9,0,0,0-3.08.52h0a2.89,2.89,0,0,0-.66,3.38l1.88,3.92a2.87,2.87,0,0,0,3.06,1.6l6.92-2.87s20.09-10.76,22.89-16.87C227.07,266.22,222.63,260.75,220.92,262Z" style="fill:#ffc3bd"></path><path d="M229.28,224.46c-3.38,1-5.16,4.26-7,18.84s-1.38,18.05-5.79,20.63c0,0,5,6.6,8,8.73,0,0,2-2.65,4.73-9.79s5-12.09,6.31-18.55C236.56,239.32,243.2,220.28,229.28,224.46Z" style="fill:#407BFF"></path><path d="M229.28,224.46c-3.38,1-5.16,4.26-7,18.84s-1.38,18.05-5.79,20.63c0,0,5,6.6,8,8.73,0,0,2-2.65,4.73-9.79s5-12.09,6.31-18.55C236.56,239.32,243.37,220.28,229.28,224.46Z" style="opacity:0.1"></path><path d="M233.75,253.7s-2-11.17-4-20.21c-.85-3.83,1.16-8.71,5-9.56a4.5,4.5,0,0,1,.64-.11c2-.26,4.21-.5,6.46-.62a106.26,106.26,0,0,1,15.14-.06,73,73,0,0,1,7.36.9c2.66.44,7,9.87,7,14.26.07,9-.49,8.37-1.58,15.4Z" style="fill:#407BFF"></path><path d="M243.22,206.17c1,4.86,2,13.78-1.43,17,2.94,3.57,6.58,5.42,10.73,9.26,3.8-6.72,4.41-9.32,4.41-9.32-5.43-1.27-5.31-5.3-4.38-9.08Z" style="fill:#ffc3bd"></path><path d="M244.23,207a20.47,20.47,0,0,0,2.06,8.34c.88,1.79,3.32,2.58,5.78,2.77a13.33,13.33,0,0,1,.46-4.08Z" style="opacity:0.2"></path><path d="M235.44,200.1c2.39,7.8,3.18,11.15,8.17,14.26,7.45,4.68,16.51.08,16.53-8.26,0-7.5-3.88-19-12.33-20.3a11.11,11.11,0,0,0-12.37,14.3Z" style="fill:#ffc3bd"></path><path d="M240.56,184.2c5.22-4.8,11-2.87,14-1.29a12.22,12.22,0,0,1,6.13,7.81c.32,1.3,0,4.32-2.54,5.16a13.09,13.09,0,0,0-2.91-4c-1.89-1.5-5.45-3.33-6.86-2.92-1.33,3-3.4,8.7-7.64,10-3.18,1,1.25,17.29-5.81,10.85-8.63-10.27-4.86-15.78-2.81-20.25S240.56,184.2,240.56,184.2Z" style="fill:#263238"></path><path d="M255.06,206.85a.21.21,0,0,0,.07-.21.2.2,0,0,0-.24-.13h0a5.27,5.27,0,0,1-4.67-.86.19.19,0,0,0-.25.29,5.51,5.51,0,0,0,5,.93Z" style="fill:#263238"></path><path d="M249.67,199.39a.19.19,0,0,0-.31-.22h0a4.08,4.08,0,0,1-4,1.05.19.19,0,0,0-.23.14.2.2,0,0,0,.14.24,4.4,4.4,0,0,0,4.37-1.16Z" style="fill:#263238"></path><path d="M254.17,198.84a.21.21,0,0,1-.06-.21.18.18,0,0,1,.24-.12h0a4.13,4.13,0,0,0,4.07-.81.19.19,0,1,1,.24.3,4.37,4.37,0,0,1-4.43.86Z" style="fill:#263238"></path><path d="M245.34,197.59a.48.48,0,0,0,.13-.16,3.06,3.06,0,0,1,2.12-1.84.39.39,0,0,0-.12-.77h0a3.92,3.92,0,0,0-2.72,2.29.4.4,0,0,0,.23.52A.41.41,0,0,0,245.34,197.59Z" style="fill:#263238"></path><path d="M256.92,194.8l.05-.05a.4.4,0,0,0,0-.55,3.87,3.87,0,0,0-3.35-1,.38.38,0,0,0-.29.46h0a.39.39,0,0,0,.47.29,3.09,3.09,0,0,1,2.68.84A.4.4,0,0,0,256.92,194.8Z" style="fill:#263238"></path><path d="M254.53,203.87a2.84,2.84,0,0,0,2.21-.93,18.41,18.41,0,0,1-3.39-3.66Z" style="fill:#ed893e"></path><path d="M267.47,271.2c.35,7,6.56,11.94,13.25,14-9.92,4.81-21.67,13.25-32,17-10.07-3.58-21.63-12.85-30.35-19,7-1.19,11.49-2.21,15.82-11.94Z" style="fill:#263238"></path><path d="M190.24,299.26c-.7-6.76-3-11.85,20.63-16.72,5.79-1.19,18.9-1,24.76-1,11.46-.09,23.22-.25,33.47-.39a243.49,243.49,0,0,1,27.12.85c12.13,1.4,19.86,7,17.27,17.27-3.74,14.88-46.58,10.14-63.92,10.14S192,316.47,190.24,299.26Z" style="fill:#263238"></path><path d="M194.91,290.9s5.13-5.76,16.9-1.18,14.54,10.67,30.22,15.63l-4.6,3.77-27.91-5.34-13.73-7.19Z" style="opacity:0.4"></path><path d="M306.52,290s-7.06-3.94-16.22,0S275.07,301,263.77,304.66l.8,3.26,41.53-12.1Z" style="opacity:0.4"></path><path d="M255,313.94s-9,5.48-11.92,11.3c-.64,1.27-4-.57-2.85-3.69,1.91-5.18,2-3.87,3.61-8.3,1.33-3.75,2.11-6.48,3.13-9.52a.91.91,0,0,1,.11-.22,1.18,1.18,0,0,1,1.64-.37l6.26,3.92,8.71-1.59,1.11,8Z" style="fill:#ffc3bd"></path><path d="M255,313.94s-9,5.48-11.92,11.3c-.64,1.27-4-.57-2.85-3.69,1.91-5.18,2-3.87,3.61-8.3,1.33-3.75,2.11-6.48,3.13-9.52a.91.91,0,0,1,.11-.22,1.18,1.18,0,0,1,1.64-.37l6.26,3.92,8.71-1.59,1.11,8Z" style="opacity:0.2"></path><path d="M309.82,291.9c-2.75-2.63-7-3.27-15.21,0s-23.71,11.45-36.3,14.23L260,314.3s39.4-2.67,47.7-7.22S312.82,294.77,309.82,291.9Z" style="fill:#263238"></path><path d="M247.92,313.94s9,5.48,11.92,11.3c.64,1.27,4-.57,2.86-3.69-1.92-5.18-2.05-3.87-3.62-8.3-1.33-3.75-2.11-6.48-3.13-9.52a.65.65,0,0,0-.11-.22,1.18,1.18,0,0,0-1.64-.37l-6.26,3.92-8.71-1.59-1.11,8Z" style="fill:#ffc3bd"></path><path d="M193.61,291.9c2.75-2.63,7-3.27,15.21,0s23.71,11.45,36.3,14.23l-1.72,8.17s-39.4-2.67-47.7-7.22S190.61,294.77,193.61,291.9Z" style="fill:#263238"></path><path d="M234.4,203.19a10.24,10.24,0,0,1,4.8-.74,19.53,19.53,0,0,1,6.62,1.86,28.9,28.9,0,0,1,8.4-2.13,10.12,10.12,0,0,1,5.94,1.87s2.39,9-8.07,12.63c0,0-10.94,1.76-16.71-11.3l.81.48c2.09,1.67,1.46,4.37,6.45,7.65,2.16-3,2.27-4.68,2.3-8.38a14.9,14.9,0,0,0-5.13-2A13.7,13.7,0,0,0,234.4,203.19Z" style="fill:#407BFF;isolation:isolate"></path><path d="M234.4,203.19a10.24,10.24,0,0,1,4.8-.74,19.53,19.53,0,0,1,6.62,1.86,28.9,28.9,0,0,1,8.4-2.13,10.12,10.12,0,0,1,5.94,1.87s2.39,9-8.07,12.63c0,0-10.94,1.76-16.71-11.3l.81.48c2.09,1.67,1.46,4.37,6.45,7.65,2.16-3,2.27-4.68,2.3-8.38a14.9,14.9,0,0,0-5.13-2A13.7,13.7,0,0,0,234.4,203.19Z" style="fill:#fff;opacity:0.6000000000000001;isolation:isolate"></path><path d="M233.68,204.5a5.86,5.86,0,0,0,2.9,3.53c1.85.95,3.2-.59,3-2.57-.15-1.76-1.29-4.4-3.32-4.54a2.66,2.66,0,0,0-2.78,2.56A2.54,2.54,0,0,0,233.68,204.5Z" style="fill:#ffc3bd"></path></g><g id="freepik--character-1--inject-7"><polygon points="213.84 403.09 91.06 403.09 65.16 414.37 239.74 414.37 213.84 403.09" style="fill:#407BFF"></polygon><polygon points="213.84 403.09 91.06 403.09 65.16 414.37 239.74 414.37 213.84 403.09" style="fill:#fff;opacity:0.7000000000000001"></polygon><path d="M156.17,306.1a2.56,2.56,0,0,1,.37-1.26c.73-1.41,1.92-2.54,2.75-3.89s.57-2.78.39-4.36c-.35-3.12.95-6.15,2.12-9s2.27-6.07,1.51-9.11a7.15,7.15,0,0,0-3.75-4.7,5.87,5.87,0,0,0-5.89.51,5,5,0,0,0-1.76,5.53c.49,1.34,1.31,2.47,1.54,3.88a12.8,12.8,0,0,1-.2,5.44,30.36,30.36,0,0,0-1.23,5.38,6.43,6.43,0,0,0,1.59,5.1,15.13,15.13,0,0,1-.76,3.49,8.34,8.34,0,0,0-.23,3.64,3.36,3.36,0,0,0,2.3,2.63,2,2,0,0,0-.49,2.13,2.17,2.17,0,0,0,1.8,1.4,2.07,2.07,0,0,1-.11-1.95,15,15,0,0,0,.88-1.62,1.35,1.35,0,0,0-.47-1.63A10.33,10.33,0,0,1,156.17,306.1Z" style="fill:#263238"></path><path d="M154.74,282.34s2.8-1.31,1.3-3.62-4.09-.26-4.09-.26l.22.15a6,6,0,0,1,2.57,3.73Z" style="fill:#407BFF"></path><polygon points="159.68 358.48 161.05 373.6 126.89 373.6 126.89 358.48 159.68 358.48" style="fill:#ce7a63"></polygon><path d="M163.4,316.84c-6.2-2.23-19.12-5.22-37-.76-2.15.54-3.64,5.42-3.62,7.63A325.91,325.91,0,0,0,126.5,367h34.55s.82-23.86,5.38-41.47C167.06,323.07,165.74,317.68,163.4,316.84Z" style="fill:#407BFF"></path><path d="M148.66,300.79c-.62,4.64-1.19,10.91,1.71,14.22a3.17,3.17,0,0,1,.71,3c-.63,2-3,5.07-10.79,8.63a7.25,7.25,0,0,1-4.89-5.37,6.35,6.35,0,0,1,2.47-6.37c2.49-1.84,3-5,2-8Z" style="fill:#ce7a63"></path><path d="M140.3,310.18a9.65,9.65,0,0,0-.43-3.49l8.06-5.59.35,2.19S148,308,140.3,310.18Z" style="opacity:0.1"></path><path d="M154,288.63c-.88,8.17-1.09,11.64-5.43,15.64-6.52,6-16.35,3.14-17.93-5.12-1.4-7.44.29-19.59,8.47-22.42A11.2,11.2,0,0,1,154,288.63Z" style="fill:#ce7a63"></path><path d="M139.51,297.67a.2.2,0,0,0-.31-.24h0a5.4,5.4,0,0,1-4.72,1.32.2.2,0,0,0-.25.14.21.21,0,0,0,.14.25,5.71,5.71,0,0,0,5.1-1.42Z" style="fill:#263238"></path><path d="M135,291.31a18.13,18.13,0,0,1-3,3.84,2.91,2.91,0,0,0,2.28.81Z" style="fill:#ba4d3c"></path><path d="M143.07,289.3a.38.38,0,0,1-.4-.22,4.64,4.64,0,0,0-3-2.12.41.41,0,0,1-.32-.46.39.39,0,0,1,.45-.31h0a5.36,5.36,0,0,1,3.62,2.57.39.39,0,0,1-.2.51h0A.18.18,0,0,1,143.07,289.3Z" style="fill:#263238"></path><path d="M131.19,286.68a.42.42,0,0,1-.37-.16.41.41,0,0,1,.08-.56,3.86,3.86,0,0,1,3.56-.66.39.39,0,0,1,.24.47l0,0a.37.37,0,0,1-.49.23h0a3.13,3.13,0,0,0-2.78.56A.4.4,0,0,1,131.19,286.68Z" style="fill:#263238"></path><path d="M131.14,289a.3.3,0,0,1,.2.08,2.26,2.26,0,0,0,1.95.6.28.28,0,0,1,.15.54h0a2.78,2.78,0,0,1-2.46-.73.27.27,0,0,1,0-.39h0A.32.32,0,0,1,131.14,289Z" style="fill:#263238"></path><path d="M138.55,290.18a.3.3,0,0,1,.2.08,5.05,5.05,0,0,0,3,.67.28.28,0,0,1,.34.2.27.27,0,0,1-.19.34h0a5.4,5.4,0,0,1-3.53-.8.27.27,0,0,1,0-.39h0A.32.32,0,0,1,138.55,290.18Z" style="fill:#263238"></path><path d="M122.76,323.71l3,2.74a44.91,44.91,0,0,1-2.49,10.4C123,332.14,122.76,323.71,122.76,323.71Z" style="opacity:0.2"></path><path d="M154.6,264.14,151,254.6l-7.86,5s2.69,5.08,7,5.79Z" style="fill:#ce7a63"></path><path d="M146.53,250.77,143.17,252a2.64,2.64,0,0,0-1.55,3.34l1.48,4.22,7.86-5-1.12-2.46A2.62,2.62,0,0,0,146.53,250.77Z" style="fill:#ce7a63"></path><path d="M155.51,315.54l10.77,8.88c2.79-4.43,11.67-23.27,11.34-39.35-.11-5.26-2.76-6-2.76-6l-21.44-17.37c-4.57-.75-3.82,3.29-3.82,3.29s17.57,20.77,17.25,22.12C166.66,287.85,155.51,315.54,155.51,315.54Z" style="fill:#407BFF"></path><path d="M133.5,264l3.64-9.54,7.86,5s-2.69,5.08-7,5.79Z" style="fill:#ce7a63"></path><path d="M141.58,250.67l3.35,1.25a2.63,2.63,0,0,1,1.55,3.34L145,259.48l-7.86-5,1.12-2.46A2.63,2.63,0,0,1,141.58,250.67Z" style="fill:#ce7a63"></path><path d="M133.12,314.68l-.67,1c-1,3.79-5.37,9.34-9.09,8.09l-.59-.2C120,319.11,110.15,301,110.48,285c.11-5.26,2.76-6,2.76-6l21.45-17.37c4.57-.75,3.82,3.29,3.82,3.29S120.93,285.64,121.26,287C121.45,287.74,133.12,314.68,133.12,314.68Z" style="fill:#407BFF"></path><path d="M160.56,366.71c.35,7,6.55,11.94,13.25,14-9.92,4.82-21.67,13.26-32,17-10.07-3.59-21.63-12.86-30.35-19,7-1.19,11.49-2.21,15.82-11.94Z" style="fill:#263238"></path><path d="M83.33,394.77c-.7-6.77-3-11.85,20.63-16.72,5.79-1.2,18.9-1,24.76-1,11.46-.1,23.22-.25,33.47-.39a246.71,246.71,0,0,1,27.12.84c12.12,1.4,19.86,7,17.27,17.28-3.74,14.87-46.58,10.13-63.92,10.13S85.1,412,83.33,394.77Z" style="fill:#263238"></path><path d="M88,386.41s5.14-5.76,16.91-1.18,14.54,10.66,30.21,15.63l-4.59,3.77-27.91-5.34-13.73-7.2Z" style="opacity:0.4"></path><path d="M199.61,385.53s-7.07-3.95-16.22,0-15.23,10.94-26.53,14.64l.8,3.26,41.53-12.1Z" style="opacity:0.4"></path><path d="M148.12,409.45s-9,5.48-11.91,11.3c-.64,1.26-4-.57-2.86-3.69,1.92-5.18,2.05-3.87,3.62-8.3,1.33-3.75,2.11-6.49,3.13-9.52a.65.65,0,0,1,.11-.22,1.18,1.18,0,0,1,1.64-.37l6.26,3.92,8.71-1.59,1.11,8Z" style="fill:#ce7a63"></path><path d="M148.12,409.45s-9,5.48-11.91,11.3c-.64,1.26-4-.57-2.86-3.69,1.92-5.18,2.05-3.87,3.62-8.3,1.33-3.75,2.11-6.49,3.13-9.52a.65.65,0,0,1,.11-.22,1.18,1.18,0,0,1,1.64-.37l6.26,3.92,8.71-1.59,1.11,8Z" style="opacity:0.2"></path><path d="M202.9,387.41c-2.74-2.63-7-3.27-15.2,0S164,398.85,151.4,401.63l1.72,8.18s39.4-2.67,47.7-7.22S205.91,390.28,202.9,387.41Z" style="fill:#263238"></path><path d="M141,409.45s9,5.48,11.92,11.3c.64,1.26,4-.57,2.85-3.69-1.91-5.18-2-3.87-3.61-8.3-1.33-3.75-2.11-6.49-3.13-9.52a.91.91,0,0,0-.11-.22,1.18,1.18,0,0,0-1.64-.37L141,402.57,132.32,401l-1.11,8Z" style="fill:#ce7a63"></path><path d="M86.7,387.41c2.75-2.63,7-3.27,15.2,0s23.71,11.44,36.3,14.22l-1.71,8.18s-39.4-2.67-47.7-7.22S83.7,390.28,86.7,387.41Z" style="fill:#263238"></path><path d="M163.93,337.33c-5-6-4.94-15.06-4.94-15.06l10.84-4.83-3.25,6.48C165.6,327.74,164.61,333.36,163.93,337.33Z" style="opacity:0.2"></path><path d="M142.77,275.69a27.59,27.59,0,0,0-5.86,1.12c-1.88.66-3.41,1.49-3.94,2.76a10.19,10.19,0,0,0-.71,3.18c-.09.79-.12,1.24-.12,1.24,6.08-2.78,11-1.59,14.49,1.94,1.72,1.71,1.54,4.11.86,6.44a6.64,6.64,0,0,1,2.32,4.29c.11-2.36,2.12-3.11,4.3-4a12.13,12.13,0,0,0-.14-11.78C151.9,277.21,146.94,275.2,142.77,275.69Z" style="fill:#263238"></path><path d="M149.9,296.07a.8.8,0,0,0-.37,1,.67.67,0,0,1,.42.81c0,.42-.59.54-.51,1.33,0,.41.14.42,0,.81s-.46.69-.87.52c.22,0,.33-.3.31-.53a3.93,3.93,0,0,0-.22-.66,3.25,3.25,0,0,0-.2-3.24,4.74,4.74,0,0,1,1.22-1.74A3.22,3.22,0,0,1,149.9,296.07Z" style="fill:#263238"></path><path d="M129.83,295.37s4.23-4.47,6.83-3.86S147.79,296,147.79,296s-1.06,5,0,7.48a13.33,13.33,0,0,1-11,4C130.15,306.58,129.83,295.37,129.83,295.37Z" style="fill:#407BFF"></path><path d="M147.5,303.56h-.38l0-.46a4.47,4.47,0,0,0,3.84-1.64,6.46,6.46,0,0,0,1.29-5.44,1.36,1.36,0,0,0-.83-1.06c-1.46-.55-4.15,1.33-4.18,1.35l-.26-.37c.11-.08,2.91-2,4.6-1.41a1.8,1.8,0,0,1,1.11,1.38,6.93,6.93,0,0,1-1.38,5.84A4.88,4.88,0,0,1,147.5,303.56Z" style="fill:#407BFF"></path><g style="opacity:0.2"><path d="M129.83,295.37s4.23-4.47,6.83-3.86S147.79,296,147.79,296s-1.06,5,0,7.48a13.33,13.33,0,0,1-11,4C130.15,306.58,129.83,295.37,129.83,295.37Z" style="fill:#fff"></path></g><path d="M135.94,291.47c-2.59.19-6.11,3.9-6.11,3.9s.32,11.21,7,12.11a13,13,0,0,0,1.5.1C133.07,300,134.62,294.18,135.94,291.47Z" style="fill:#fff;opacity:0.2"></path><path d="M156,295.1a5.85,5.85,0,0,1-3.14,3.21c-1.91.79-3.12-.86-2.8-2.8.3-1.75,1.65-4.27,3.67-4.26a2.64,2.64,0,0,1,2.56,2.73A2.55,2.55,0,0,1,156,295.1Z" style="fill:#ce7a63"></path></g></svg>